<svg xmlns="http://www.w3.org/2000/svg" width="175.215" height="32" viewBox="0 0 175.215 32"><defs><style>.a,.b{fill:#1a1311;}.a,.c{fill-rule:evenodd;}.c{fill:#004b9e;}</style></defs><g transform="translate(-11.32 -8.51)"><path class="a" d="M91.83,28.757h4.315a2.29,2.29,0,0,0,2.225-2.123,1.934,1.934,0,0,0-1.5-1.8,1.649,1.649,0,0,0,1.126-1.562c0-1.461-1.587-1.919-2.321-1.919H91.83v7.4m1.136-6.562h1.9c1.73,0,1.994.812,1.994,1.24,0,.476-.3,1.1-1.575,1.1H92.966V22.194m0,3.184h2.188c1.061,0,2.105.128,2.105,1.207a1.312,1.312,0,0,1-1.478,1.33H92.966Z" transform="translate(53.146 8.48)"/><path class="a" d="M101.16,23.515c-.015-.523-.672-.867-1.471-1.023a4.965,4.965,0,0,0-1.072-.1,3.259,3.259,0,0,0-1.3.241,1.712,1.712,0,0,0-1.051,1.046l-.038.468h.955c.02-.242.095-.991,1.288-.991.669,0,1.546.176,1.635.549v.631c0,.291-.374.383-.51.41a19.641,19.641,0,0,0-2.329.315,1.479,1.479,0,0,0-1.315,1.388c-.085,1.041.789,1.668,2.191,1.668a3.837,3.837,0,0,0,2.012-.77,1,1,0,0,0,.933.77,2.944,2.944,0,0,0,.775-.091v-.672a.591.591,0,0,1-.222.028c-.244,0-.48-.164-.48-.309V23.515m-1.048,2.826a2.053,2.053,0,0,1-2.027,1.046c-.545,0-1.126-.249-1.112-.911a.933.933,0,0,1,.614-.722c.588-.229,1.717-.2,2.525-.483Z" transform="translate(55.862 9.166)"/><path class="a" d="M99.726,22.634v5.324h1.009V25.129a1.635,1.635,0,0,1,1.717-1.886c.712,0,1.283.35,1.273,1.014v3.7h1.013V23.816a1.554,1.554,0,0,0-1-1.207,4.05,4.05,0,0,0-1.028-.134,2.34,2.34,0,0,0-1.255.244,1.963,1.963,0,0,0-.7.573h-.015v-.657Z" transform="translate(58.358 9.217)"/><path class="a" d="M103.22,21.316v7.4h1.006v-2l1-.843,2.077,2.844h1.25l-2.567-3.487L108.18,23.4H106.9l-2.67,2.218v-4.3Z" transform="translate(60.664 8.453)"/><path class="a" d="M88.222,25.329a2.852,2.852,0,1,0-5.7,0,2.852,2.852,0,1,0,5.7,0m-1.041,0a1.823,1.823,0,1,1-3.627,0,1.823,1.823,0,1,1,3.627,0Z" transform="translate(46.999 9.218)"/><path class="a" d="M86.339,22.634v5.324h1.016V25.129a1.639,1.639,0,0,1,1.727-1.886c.706,0,1.283.35,1.265,1.014v3.7h1.011V23.816a1.554,1.554,0,0,0-.993-1.207,4.152,4.152,0,0,0-1.039-.134,2.3,2.3,0,0,0-1.247.244,1.854,1.854,0,0,0-.706.573h-.018v-.657Z" transform="translate(49.521 9.217)"/><rect class="b" width="11.6" height="1.447" transform="translate(174.512 13.066)"/><path class="a" d="M110.4,16.667v8.068h-2.821V18.852a12.882,12.882,0,0,1-1.667.85l-1.159-1.861a13.714,13.714,0,0,0,6.137-5.663l1.727,1.519A15.537,15.537,0,0,1,110.4,16.667Z" transform="translate(61.674 2.421)"/><path class="a" d="M117.27,23.559a2.5,2.5,0,0,0,2.477-2.525l0-5.615h2.178V13.959H109.189V15.42h7.519v5.864a.835.835,0,0,1-.832.832h-3.324v1.444Z" transform="translate(64.604 3.597)"/><path class="a" d="M110.473,12.093a12.43,12.43,0,0,1-5.015,5.289l-1.067-1.929a12.743,12.743,0,0,0,4.451-4.831Z" transform="translate(61.437 1.394)"/><path class="a" d="M99.135,13.915h4.711V12.467H99.135v1.448m0,2.854h4.711V15.349H99.135v1.419m5.664,5.8a10.881,10.881,0,0,0,2.389-3.471l-2.107-.018a8.592,8.592,0,0,1-1.7,2.223,5.386,5.386,0,0,1-.355-.458,5.062,5.062,0,0,1-.837-1.736h-2.168a14.3,14.3,0,0,0,1.016,2.394,7.719,7.719,0,0,0,6.227,3.986V23.477a5.005,5.005,0,0,1-2.465-.91m-3.357.01a5.274,5.274,0,0,1-2.288.78l.017-5.16h7.384l.012-5.772a1.376,1.376,0,0,0-1.363-1.385l-8.7.012V23.518h-.558v1.962l1.388,0a11.887,11.887,0,0,0,4.117-.759Z" transform="translate(55.864 1.671)"/><path class="a" d="M96.147,23.354V19.992H99.4V18.559H96.147v-1.62h2.987V15.495l-5.47.012a13.828,13.828,0,0,0,1.084-1.386l4.607-.023V12.719H95.606a10.963,10.963,0,0,0,.661-1.361l-2.1-.754a10.115,10.115,0,0,1-4,5.062l1.388,1.668c.2-.148.417-.269.619-.415h1.559v1.64H91.68v1.433h2.1l-.007,4.021a9.494,9.494,0,0,1-1.429.134l1.385,1.758a11,11,0,0,0,5.621-2.215l0-2.337A11.552,11.552,0,0,1,96.147,23.354Z" transform="translate(52.05 1.382)"/><path class="c" d="M38.2,20.4l-9.179-9.185a5.818,5.818,0,0,0-5-1.657,15.251,15.251,0,1,0,17.667,15.6.61.61,0,0,0-.221-.506,1.507,1.507,0,0,0-.72-.093H34.862a2.74,2.74,0,0,0-.732.085,1.781,1.781,0,0,0-.277.164L26.7,32a.294.294,0,0,1-.425,0l-7.213-7.23a.285.285,0,0,1,0-.42L26.273,17.1a.306.306,0,0,1,.425,0l6.6,6.645a1.969,1.969,0,0,0,.662.385c.312.09.752-.226.752-.226Z" transform="translate(0 0.648)"/><path class="c" d="M36.194,16.394l-4.922-4.97C25.781,6.056,19.424,9.748,19.424,9.748s2.7-1.461,6.152,2.22l8.133,8.279,2.4-2.409a1.911,1.911,0,0,0,.354-.706C36.526,16.834,36.194,16.394,36.194,16.394Z" transform="translate(5.35 0)"/><path class="a" d="M42.418,23.646a3.447,3.447,0,0,0-3.569-2.4,4.266,4.266,0,0,0-2.43.767,4.033,4.033,0,0,0-1.4,3.108,3.967,3.967,0,0,0,1.4,3.121,4.351,4.351,0,0,0,2.43.755,3.642,3.642,0,0,0,3.74-2.935H41.435a2.517,2.517,0,0,1-2.53,2.087,2.683,2.683,0,0,1-1.884-.711,3.244,3.244,0,0,1-.84-2.318,3.243,3.243,0,0,1,.84-2.313,2.69,2.69,0,0,1,1.884-.711,2.373,2.373,0,0,1,2.349,1.551Z" transform="translate(15.646 8.406)"/><path class="a" d="M39.961,28.722h1.013V25.247a.86.86,0,0,1,.38-.785,2.629,2.629,0,0,1,1-.455,2.012,2.012,0,0,1,1.067.146.8.8,0,0,1,.533.93v3.639h1.011V24.676a1.333,1.333,0,0,0-1.031-1.252,2.767,2.767,0,0,0-1.028-.186,3.159,3.159,0,0,0-.855.134,2.927,2.927,0,0,0-1.081.654V21.316H39.961Z" transform="translate(18.906 8.453)"/><path class="a" d="M44.517,23.4h-1v5.324h1V23.4m0-2.082h-1v1.056h1Z" transform="translate(21.254 8.453)"/><path class="a" d="M44.7,22.634v5.324h1.016V25.129a1.636,1.636,0,0,1,1.73-1.886c.684,0,1.268.35,1.257,1.014v3.7h1.014V23.816a1.542,1.542,0,0,0-1-1.207,4.1,4.1,0,0,0-1.029-.134,2.3,2.3,0,0,0-1.248.244,1.849,1.849,0,0,0-.7.573h-.017v-.657Z" transform="translate(22.035 9.217)"/><path class="a" d="M53.3,23.535c-.03-.526-.671-.868-1.469-1.021a4.994,4.994,0,0,0-1.084-.1,3.467,3.467,0,0,0-1.293.231A1.75,1.75,0,0,0,48.4,23.7l-.033.466h.943c.022-.241.1-.984,1.295-.984.676,0,1.551.168,1.635.554v.613c0,.3-.375.4-.5.42a18.128,18.128,0,0,0-2.351.307,1.523,1.523,0,0,0-1.315,1.4c-.086,1.043.8,1.665,2.2,1.665a3.849,3.849,0,0,0,2.009-.767,1.01,1.01,0,0,0,.941.767,3,3,0,0,0,.78-.086v-.676a.609.609,0,0,1-.232.032c-.257,0-.478-.164-.478-.317V23.535m-1.053,2.817a2.039,2.039,0,0,1-2.024,1.054c-.558-.018-1.142-.249-1.106-.918a.906.906,0,0,1,.591-.714c.591-.226,1.725-.214,2.538-.483Z" transform="translate(24.26 9.177)"/><path class="a" d="M61.414,23.646a3.443,3.443,0,0,0-3.573-2.4,4.264,4.264,0,0,0-2.424.767,3.985,3.985,0,0,0-1.393,3.108,3.932,3.932,0,0,0,1.393,3.121A4.35,4.35,0,0,0,57.842,29a3.624,3.624,0,0,0,3.737-2.935H60.43a2.507,2.507,0,0,1-2.53,2.087,2.655,2.655,0,0,1-1.878-.711,3.23,3.23,0,0,1-.84-2.318,3.229,3.229,0,0,1,.84-2.313A2.663,2.663,0,0,1,57.9,22.1a2.364,2.364,0,0,1,2.351,1.551Z" transform="translate(28.19 8.406)"/><path class="a" d="M64.421,25.329a2.85,2.85,0,1,0-5.7,0,2.85,2.85,0,1,0,5.7,0m-1.039,0a1.823,1.823,0,1,1-3.627,0,1.823,1.823,0,1,1,3.627,0Z" transform="translate(31.289 9.218)"/><path class="a" d="M62.543,22.634v5.324h1V25.129a1.646,1.646,0,0,1,1.736-1.886c.7,0,1.278.35,1.265,1.014v3.7H67.56V23.816a1.555,1.555,0,0,0-1-1.207,4.19,4.19,0,0,0-1.039-.134,2.346,2.346,0,0,0-1.255.244,1.781,1.781,0,0,0-.687.573h-.033v-.657Z" transform="translate(33.813 9.217)"/><path class="a" d="M65.859,26.384c0,.5.138,1.453,1.6,1.728a6.685,6.685,0,0,0,1.212.071,4.39,4.39,0,0,0,1.15-.216,1.7,1.7,0,0,0,1.14-1.282,1.206,1.206,0,0,0-.7-1.315,4.526,4.526,0,0,0-1.444-.413,8.168,8.168,0,0,1-1.487-.39.515.515,0,0,1-.294-.729,1.4,1.4,0,0,1,1.228-.576c1.411,0,1.448.588,1.448.862h.978c-.008-.608-.266-1.65-2.337-1.65-1.233,0-2.327.579-2.327,1.6a1.243,1.243,0,0,0,.933,1.3A18.827,18.827,0,0,0,69.3,25.9c.5.151.687.41.687.689a.8.8,0,0,1-.4.642,3.193,3.193,0,0,1-.784.241,4.288,4.288,0,0,1-.9-.058c-.7-.183-1.061-.523-1.089-1.033Z" transform="translate(36.002 9.218)"/><path class="a" d="M70.78,21.7H69.774v1.449h-.89v.775h.89v4.026a.876.876,0,0,0,.913.749,4.279,4.279,0,0,0,1.082-.055v-.75c-.554.081-.989.056-.989-.276V23.922h.989v-.775H70.78Z" transform="translate(37.999 8.705)"/><path class="a" d="M70.849,27.957h1.014V25.18a1.576,1.576,0,0,1,1.057-1.695,3.547,3.547,0,0,1,.955-.118v-.893h-.566a1.977,1.977,0,0,0-1.423.981h-.023v-.822H70.849Z" transform="translate(39.296 9.218)"/><path class="a" d="M77.882,27.894V22.57h-1v2.877a1.65,1.65,0,0,1-1.247,1.819,2.419,2.419,0,0,1-.706.06,1.348,1.348,0,0,1-.568-.148.872.872,0,0,1-.48-.85V22.57H72.873v4.24a1.72,1.72,0,0,0,1,1.2,3.653,3.653,0,0,0,1.009.113,3.063,3.063,0,0,0,1.267-.216,1.958,1.958,0,0,0,.706-.578h.027v.568Z" transform="translate(40.632 9.281)"/><path class="a" d="M80.589,26.121a1.755,1.755,0,0,1-.3.687,1.485,1.485,0,0,1-1.2.581,1.682,1.682,0,0,1-1.549-.818,2.562,2.562,0,0,1-.249-1.433,2.239,2.239,0,0,1,.5-1.323,1.893,1.893,0,0,1,1.25-.561,2.078,2.078,0,0,1,.863.171c.423.174.568.442.674.993h.986a1.8,1.8,0,0,0-.78-1.471A3.014,3.014,0,0,0,79,22.474a2.815,2.815,0,0,0-1.9.72,2.916,2.916,0,0,0-.9,2.06,3.646,3.646,0,0,0,.435,1.81,2.626,2.626,0,0,0,2.223,1.119,2.784,2.784,0,0,0,2.374-.988,2.1,2.1,0,0,0,.322-1.074Z" transform="translate(42.83 9.218)"/><path class="a" d="M81.39,21.7H80.384v1.449H79.5v.775h.88v4.026a.892.892,0,0,0,.925.749,4.341,4.341,0,0,0,1.082-.055v-.75c-.569.081-1,.056-1-.276V23.922h1v-.775h-1Z" transform="translate(45.009 8.705)"/><path class="a" d="M82.581,23.4h-1v5.324h1V23.4m0-2.082h-1v1.056h1Z" transform="translate(46.381 8.453)"/><path class="a" d="M42.724,14.05H38.1v8.023h4.628V14.05m10.645-.027v9.444H45.724v1.773h-3V23.468H35.086V14.023a1.352,1.352,0,0,1,1.343-1.363h6.3V11.168h2.988V12.66h6.305a1.354,1.354,0,0,1,1.351,1.363m-2.987.027h-4.67v8.023h4.67Z" transform="translate(15.688 1.754)"/><path class="a" d="M81.272,21.343l-.008-8.13-5.157.032v1.42h2.281v7.8Z" transform="translate(42.767 3.105)"/><path class="a" d="M83.4,16.471V19.21a10.319,10.319,0,0,1-2.406,1.725,15.278,15.278,0,0,1-2.935,1.142l-1.444-1.823A17.055,17.055,0,0,0,80.336,18.9,19.426,19.426,0,0,0,83.4,16.471Z" transform="translate(43.1 5.255)"/><path class="a" d="M55.16,15.79V14.005H51.32V12.63H62.168v1.375H58.245V15.79h3.708v1.4H58.245v3.3h3.936v1.358H51.32V20.487h3.84v-3.3H51.543v-1.4Z" transform="translate(26.405 2.719)"/><path class="a" d="M52.147,12.441V23.959h12.16V12.441H52.147m-3.03,12.828h18.17V12.444a1.346,1.346,0,0,0-1.333-1.351H50.442a1.343,1.343,0,0,0-1.325,1.351Z" transform="translate(24.95 1.705)"/><path class="a" d="M59.161,18.029h-.941a2.011,2.011,0,0,1-.966-.164,1.77,1.77,0,0,1-.666-.782l-.779-1.4h2.085l.583,1.049.684,0Z" transform="translate(29.368 4.733)"/><path class="a" d="M77.932,14.267V13.241H75.746v1.026h2.186m0,2.425v-.979H75.746v.979h2.186M64.419,19.361a5.733,5.733,0,0,0,5.6,4.685H72.94V23.033H68.518V21.577H72.94v-.984H68.876V19.153H72.94V18.119H69.2V16.693H72.94v-.979H68.725V14.267H72.94V13.241H69.2V11.812H72.94v-.82h2.806v.82h3.76a1.389,1.389,0,0,1,1.376,1.4v1.051H81.97v1.446H80.932l.008,2.406H75.746v1.034h5.136v1.439H75.746v.984h5.136v1.456H75.746v1.013h6.03l-.008,1.468H69.58a6.764,6.764,0,0,1-6.72-6.136Z" transform="translate(34.022 1.638)"/><path class="a" d="M65.877,19.61a3.6,3.6,0,0,1-3.143,3.6v1.949a5.231,5.231,0,0,0,5.208-5.233l.022-3.823-1.736-.008a5.457,5.457,0,0,0,2.268-4.678c0-.037-5.751-.012-5.751-.012l0,1.451h3.315a3.932,3.932,0,0,1-3.088,3.252v1.416h2.917Z" transform="translate(33.939 1.904)"/><path class="a" d="M91.96,14.511c-.022.33-.111.81,1.013.732l.46.017V16.6H91.675c-2.821-.012-2.608-1.672-2.631-2.324V12.5l-4.051.012,0,1.765c-.02.652.282,2.484-2.63,2.324h-1.7V15.233l.485.01c1.124.085,1.011-.453,1.011-.732V11.073H90.6a1.331,1.331,0,0,1,1.335,1.336Z" transform="translate(45.769 1.692)"/><path class="a" d="M93.49,16.616,93.5,14.8H80.6v1.639h9.644a14.371,14.371,0,0,1-9.78,4.369v2.127A16.581,16.581,0,0,0,93.49,16.616Z" transform="translate(45.644 4.15)"/><path class="a" d="M80.724,16.061a18.358,18.358,0,0,0,13.366,6.01V19.912a18.006,18.006,0,0,1-9.9-3.845Z" transform="translate(45.814 4.984)"/><rect class="b" width="5.733" height="1.54" transform="translate(119.888 13.111)"/></g></svg>